<?xml version="1.0" encoding="utf-8"?>
<!-- Generator: Adobe Illustrator 25.0.0, SVG Export Plug-In . SVG Version: 6.00 Build 0)  -->
<svg version="1.1" id="Layer_1" xmlns="http://www.w3.org/2000/svg" xmlns:xlink="http://www.w3.org/1999/xlink" x="0px" y="0px"
	 viewBox="0 0 473.2 80.9" style="enable-background:new 0 0 473.2 80.9;" xml:space="preserve">
<style type="text/css">
	.st0{fill:none;stroke:#14274D;stroke-width:10;stroke-miterlimit:10;}
	.st1{fill:none;stroke:url(#SVGID_1_);stroke-width:10;stroke-miterlimit:10;}
	.st2{fill:none;stroke:url(#SVGID_2_);stroke-width:10;stroke-miterlimit:10;}
	.st3{fill:none;stroke:url(#SVGID_3_);stroke-width:10;stroke-miterlimit:10;}
	.st4{fill:none;stroke:url(#SVGID_4_);stroke-width:10;stroke-miterlimit:10;}
	.st5{fill:none;stroke:url(#SVGID_5_);stroke-width:10;stroke-miterlimit:10;}
	.st6{fill:none;stroke:url(#SVGID_6_);stroke-width:5;stroke-linecap:round;stroke-miterlimit:10;}
	.st7{fill:none;stroke:#14274D;stroke-width:10;stroke-linejoin:bevel;stroke-miterlimit:10;}
	.st8{fill:#14274D;}
	.st9{fill:none;stroke:#14274D;stroke-miterlimit:10;}
</style>
<circle class="st0" cx="338.3" cy="46.3" r="16.6"/>
<g>
	<path class="st0" d="M408.9,46.1l33,0c0-9.2-7.4-16.6-16.6-16.6s-16.6,7.4-16.6,16.6s7.4,16.6,16.6,16.6c5.2,0,9.8-2.4,12.8-6.1"/>
</g>
<line class="st0" x1="460.1" y1="12.5" x2="460.1" y2="67.8"/>
<line class="st0" x1="354.9" y1="24.5" x2="354.9" y2="67.9"/>
<line class="st0" x1="447" y1="29.6" x2="473.2" y2="29.6"/>
<line class="st0" x1="372.7" y1="12.5" x2="372.7" y2="67.8"/>
<line class="st0" x1="390.8" y1="12.5" x2="390.8" y2="67.8"/>
<linearGradient id="SVGID_1_" gradientUnits="userSpaceOnUse" x1="125.0933" y1="46.2511" x2="168.3191" y2="46.2511">
	<stop  offset="0" style="stop-color:#5F4EF3"/>
	<stop  offset="1" style="stop-color:#6E47EF"/>
</linearGradient>
<circle class="st1" cx="146.7" cy="46.3" r="16.6"/>
<linearGradient id="SVGID_2_" gradientUnits="userSpaceOnUse" x1="75.8226" y1="46.11" x2="117.0287" y2="46.11">
	<stop  offset="0" style="stop-color:#4C56F8"/>
	<stop  offset="1" style="stop-color:#5B50F4"/>
</linearGradient>
<path class="st2" d="M80.8,24.5v22.6c0,8.6,7,15.6,15.6,15.6s15.6-7,15.6-15.6V24.5"/>
<g>
	<linearGradient id="SVGID_3_" gradientUnits="userSpaceOnUse" x1="194.5946" y1="46.1404" x2="237.8617" y2="46.1404">
		<stop  offset="0" style="stop-color:#7942EC"/>
		<stop  offset="1" style="stop-color:#883BE8"/>
	</linearGradient>
	<path class="st3" d="M199.8,46.1l33,0c0-9.2-7.4-16.6-16.6-16.6s-16.6,7.4-16.6,16.6s7.4,16.6,16.6,16.6c5.2,0,9.8-2.4,12.8-6.1"/>
</g>
<linearGradient id="SVGID_4_" gradientUnits="userSpaceOnUse" x1="168.3537" y1="40.147" x2="194.5221" y2="40.147">
	<stop  offset="0" style="stop-color:#6F47EF"/>
	<stop  offset="1" style="stop-color:#7842EC"/>
</linearGradient>
<path class="st4" d="M181.4,12.5v55.3 M168.4,29.6h26.2"/>
<linearGradient id="SVGID_5_" gradientUnits="userSpaceOnUse" x1="6.2459" y1="40.1727" x2="72.1888" y2="40.1727">
	<stop  offset="0" style="stop-color:#3362FF"/>
	<stop  offset="1" style="stop-color:#4858F9"/>
</linearGradient>
<path class="st5" d="M45.7,12.7c-13.4-4.8-28.2,2.2-32.9,15.6S15,56.5,28.4,61.3c13.4,4.8,28.2-2.2,32.9-15.6S59.1,17.5,45.7,12.7z
	 M54.3,56.2l14.4,14.4"/>
<linearGradient id="SVGID_6_" gradientUnits="userSpaceOnUse" x1="21.0249" y1="36.6059" x2="44.0591" y2="36.6059">
	<stop  offset="0" style="stop-color:#385FFD"/>
	<stop  offset="1" style="stop-color:#3F5CFC"/>
</linearGradient>
<path class="st6" d="M32.5,49.7c-3.4-1.2-6.1-3.7-7.7-6.9s-1.7-6.9-0.5-10.3c1.9-5.4,7-9,12.7-9c1.5,0,3.1,0.3,4.5,0.8"/>
<polyline class="st7" points="313.3,7.6 296.1,66.5 278.8,7.5 261.5,66.5 244.2,7.6 "/>
<polygon class="st8" points="249,6.2 239.9,10.7 238.6,6.2 249,6.2 "/>
<polygon class="st8" points="308.5,6.2 317.9,9.9 319,6.2 308.5,6.2 "/>

</svg>
